# xmcd
#
# Track frame offsets: 
#        150
#        10778
#        32156
#        47921
#        65525
#        94409
#        117194
#        146690
#        169493
#        186868
#        198907
#
# Disc length: 2845 seconds
#
# Revision: 0
# Processed by: cddbd v1.5.2PL0 Copyright (c) Steve Scherf et al.
# Submitted via: ExactAudioCopy v1.2
#
DISCID=9e0b1b0b
DTITLE=Memphis Slim - Live in London (feat. Danny Adler)
DYEAR=2018
DGENRE=Blues
TTITLE0=Health Shakin' (Live)
TTITLE1=Mother Earth (Live)
TTITLE2=Rockhouse Boogie (Live)
TTITLE3=I Feel so Good (Live)
TTITLE4=Baby Talk (Live)
TTITLE5=Two Slims Boogie (Live)
TTITLE6=How Long Blues (Live)
TTITLE7=400 Years (Live)
TTITLE8=World Blues (Live)
TTITLE9=Bye Bye Blues (Live)
TTITLE10=If You See Kay (Live)
EXTD=
EXTT0=
EXTT1=
EXTT2=
EXTT3=
EXTT4=
EXTT5=
EXTT6=
EXTT7=
EXTT8=
EXTT9=
EXTT10=
PLAYORDER=
